PathFileType	3	(X/Y/Z)	D:\minhoCalibration\240510\subject3_KPNP\preferred\preferred04.trc
DataRate	CameraRate	NumFrames	NumMarkers	Units	OrigDataRate	OrigDataStartFrame	OrigNumFrames
200.0	200.0	24	10	mm	200.0	117	111	
Frame#	Time	Left_Ankle_Outer1			Left_Ankle_Inner1			Left_Knee_Outer1			Left_Knee_Inner1			Left_Wrist1			Right_Wrist1			Right_Knee_Inner1			Right_Knee_Outer1			Right_Ankle_Inner1			Right_Ankle_Outer1			
		X1	Y1	Z1	X2	Y2	Z2	X3	Y3	Z3	X4	Y4	Z4	X5	Y5	Z5	X6	Y6	Z6	X7	Y7	Z7	X8	Y8	Z8	X9	Y9	Z9	X10	Y10	Z10	
117	0.575	-311.27435	126.7769	-534.22784	-361.42599	146.45322	-511.11871	-129.61459	518.97375	-451.54742	-195.7881	538.26263	-372.86008	-149.41028	897.13953	-694.38074	-345.60919	1112.3318	-449.52548	-269.43146	993.85345	-52.483368	-298.28067	1091.0879	-97.862282	-648.5918	865.50031	116.22343	-680.54108	961.75458	116.12891
118	0.58	-311.93002	126.41827	-534.41919	-362.26007	146.11368	-511.36154	-130.39891	517.91437	-450.77097	-196.5459	537.53436	-372.22977	-153.46162	893.15247	-696.43164	-342.58716	1113.7965	-452.20465	-264.15439	1003.5786	-57.063732	-293.65878	1096.6974	-105.56453	-621.66626	893.82837	164.5307	-654.42224	989.80511	160.06418
119	0.585	-313.67566	125.48653	-534.03723	-363.18695	145.7982	-511.53113	-131.34598	516.76898	-450.00864	-197.62262	536.85077	-371.64624	-157.16382	889.23029	-698.08789	-340.70996	1114.6792	-454.95612	-261.30881	1010.3156	-61.886551	-292.13712	1101.1021	-112.44027	-589.38904	921.63129	207.22548	-620.60498	1017.6639	198.35876
120	0.59	-313.85019	125.79957	-534.51917	-364.15805	145.45259	-511.66595	-132.37152	515.7536	-449.17923	-198.5735	535.69293	-371.04654	-160.81868	885.28265	-699.15778	-338.45819	1115.3784	-458.14313	-260.32962	1013.8661	-67.002419	-293.03174	1103.9501	-118.3518	-553.81226	950.9873	245.8011	-583.87567	1047.3428	234.09537
121	0.595	-315.565	125.08369	-534.12854	-365.18991	145.20323	-511.63513	-133.4306	514.83569	-448.43311	-199.48923	534.93689	-371.35547	-164.17896	881.64746	-699.5603	-336.3045	1115.4613	-461.32928	-261.03818	1014.9914	-71.398987	-295.11691	1105.4417	-123.06015	-514.41992	980.47565	278.98474	-542.94073	1077.4181	265.02298
122	0.6	-316.146	125.57177	-534.20898	-366.12079	144.87503	-511.52988	-134.53601	514.36377	-447.5867	-200.7359	534.78314	-369.77362	-167.53365	878.42682	-698.97394	-336.88419	1116.4108	-464.83041	-262.72562	1015.2274	-74.601936	-298.401	1104.8612	-126.0923	-467.53992	1010.3887	305.32935	-497.1109	1105.3203	287.25528
123	0.605	-317.55255	125.08821	-534.12128	-367.16571	144.83649	-511.50864	-135.72495	513.86255	-446.90555	-201.74509	534.36145	-369.03265	-170.53992	875.93878	-697.39795	-336.85791	1116.7446	-467.45203	-264.7926	1015.4809	-77.029961	-301.3244	1102.8086	-128.24937	-417.8143	1037.8573	321.12888	-448.77811	1131.7175	302.26212
124	0.61	-318.11545	125.50092	-534.34393	-368.08228	144.50694	-511.36612	-136.8873	513.78729	-446.13751	-203.00754	534.11743	-367.90674	-173.38683	874.32343	-694.35828	-338.07172	1118.115	-469.15265	-266.95511	1015.5183	-79.237732	-304.81244	1100.2249	-129.47429	-367.12582	1063.3824	327.99667	-399.48874	1155.8341	306.71609
125	0.615	-319.61081	125.04032	-534.19366	-369.10846	144.31711	-511.32239	-138.10564	513.76709	-445.4118	-203.91948	533.96478	-366.3349	-175.69627	873.64856	-690.19879	-340.38861	1120.2412	-470.06552	-268.15445	1014.9371	-81.343277	-309.51639	1097.9735	-129.50044	-337.68268	1077.0441	316.97519	-363.8663	1176.1776	299.10272
126	0.62	-320.65533	124.96707	-534.32684	-370.04523	144.11317	-511.34796	-139.50136	513.92352	-444.41821	-205.00838	533.27991	-365.6608	-177.48405	873.7016	-684.87445	-343.44363	1122.3729	-470.51523	-267.74213	1013.139	-83.293472	-314.4379	1098.6276	-129.02751	-332.55826	1090.4503	326.30023	-343.08832	1186.1223	291.93796
127	0.625	-320.54657	125.47195	-534.91473	-370.82132	143.65085	-511.50137	-140.89781	514.07849	-443.13174	-206.02419	532.94507	-363.86273	-178.39729	874.29266	-678.86023	-347.30811	1123.6185	-470.69003	-264.73886	1010.4072	-84.145271	-318.28653	1102.363	-129.33134	-331.60971	1094.0233	324.01367	-340.09357	1191.4353	290.80362
128	0.63	-320.79837	125.22049	-535.16071	-371.32199	143.19353	-511.88629	-142.45204	514.315	-441.44394	-207.63719	532.67749	-360.82727	-178.55547	875.18073	-672.31909	-351.96735	1123.97	-470.46063	-260.20081	1010.7388	-84.687424	-320.20663	1107.6793	-130.01939	-330.65228	1086.6168	318.43655	-341.6568	1186.4438	294.96448
129	0.635	-320.71057	124.80874	-535.03699	-371.46436	142.77306	-512.31958	-144.50169	514.73657	-439.06699	-209.69759	531.97473	-358.00858	-177.97008	876	-665.69647	-357.26443	1123.7958	-469.8999	-253.72955	1015.4021	-85.954926	-314.07498	1111.5787	-132.83087	-329.51245	1077.6154	316.83829	-346.57205	1176.6388	298.02625
130	0.64	-319.97205	124.39603	-535.08667	-370.88034	141.95258	-512.88678	-146.63086	515.15216	-436.31476	-212.20891	531.07013	-355.61996	-177.14034	876.78723	-659.31323	-362.65906	1123.3911	-469.08475	-246.38063	1021.7349	-87.63839	-302.07925	1114.3165	-133.21465	-326.49689	1068.4147	319.57065	-354.0267	1165.7262	302.12903
131	0.645	-319.83066	123.26209	-534.56616	-370.37946	141.29669	-513.88397	-149.10687	515.64996	-432.85181	-215.55005	530.63464	-353.15793	-176.02223	877.80707	-653.33392	-369.32257	1122.3334	-467.69165	-239.83701	1029.2308	-89.912399	-288.71552	1114.2271	-131.61458	-323.38052	1063.3383	322.45032	-359.82324	1153.6173	304.06467
132	0.65	-318.56042	122.56845	-535.10217	-369.8613	140.45522	-515.02081	-151.49821	515.9906	-429.06091	-219.61823	530.39789	-351.34186	-175.15532	878.24792	-648.21002	-372.4397	1121.4861	-464.72153	-236.15881	1036.2561	-91.925438	-277.14706	1111.9843	-132.78181	-321.09619	1053.9824	321.50919	-363.04053	1141.9728	306.17505
133	0.655	-318.00922	121.68559	-534.99249	-369.42023	139.33167	-516.3468	-154.20813	516.28656	-424.81647	-224.73225	530.39606	-350.0448	-174.00804	878.84766	-644.00037	-379.65955	1119.7915	-462.9924	-237.27327	1039.2177	-91.086182	-270.50323	1107.7534	-136.96558	-323.34076	1041.2269	318.63593	-362.40381	1131.3611	307.42386
134	0.66	-316.5723	121.27053	-535.85022	-369.02197	138.03256	-517.75275	-156.96198	516.34454	-420.75922	-230.74123	530.75397	-349.16592	-173.18259	879.16833	-640.37408	-384.85611	1117.4641	-460.16211	-241.64664	1036.0394	-88.439415	-272.2915	1102.9059	-138.59947	-324.12366	1031.162	318.38037	-360.60352	1123.111	308.83716
135	0.665	-316.03976	120.3763	-536.30127	-368.96246	136.93187	-519.047	-159.63647	516.6012	-417.03271	-236.04489	530.69489	-348.83771	-172.29866	879.29211	-637.47968	-389.25323	1115.1375	-457.77106	-244.40721	1030.2438	-87.950829	-279.72696	1102.6254	-136.91241	-323.01102	1020.5739	318.95749	-359.28961	1114.4427	311.34979
136	0.67	-315.68298	119.80412	-536.63257	-368.91779	136.11786	-519.99194	-162.24893	516.86731	-413.79736	-241.68784	530.35449	-349.73056	-171.1779	879.2597	-635.20215	-393.37778	1112.4014	-454.47446	-246.80864	1023.7064	-88.54998	-288.80884	1103.8645	-133.70494	-321.70444	1008.2986	319.36533	-358.22192	1104.3462	314.23517
137	0.675	-315.63965	119.4318	-536.80579	-369.08591	135.50728	-520.79419	-164.93513	517.04706	-411.18274	-246.61237	530.02521	-350.36935	-170.16077	879.18402	-633.17145	-397.48413	1109.8937	-451.69385	-248.88524	1016.8457	-89.057449	-298.85016	1101.3639	-129.95547	-321.77728	997.86847	320.91684	-358.01831	1093.8973	316.85559
138	0.68	-315.83344	119.37872	-536.797	-369.56143	135.00313	-521.32104	-167.34296	517.05505	-409.34857	-251.04523	529.89862	-350.83566	-169.05371	879.38354	-631.35834	-401.41794	1107.7983	-448.77002	-251.10532	1010.0135	-88.593521	-309.41467	1094.8859	-125.70551	-315.83005	989.15753	323.55176	-358.76556	1082.2748	318.82327
139	0.685	-316.22949	119.32404	-536.91058	-370.37073	134.46971	-521.6618	-169.85133	516.93341	-408.20538	-255.04922	529.54779	-352.49268	-168.12671	879.74469	-629.6734	-404.78967	1105.5701	-445.98422	-253.67633	1003.1352	-87.734413	-318.34698	1086.4268	-121.87679	-310.64658	978.98199	325.82257	-359.53607	1068.8423	320.9772
140	0.69	-316.86636	119.26785	-537.09583	-371.3623	134.12398	-522.2019	-172.20045	516.72546	-407.94186	-258.15375	529.52527	-353.94547	-166.94112	880.71545	-628.33618	-407.29962	1103.4327	-444.33838	-256.48032	995.75702	-86.723167	-326.64999	1076.85	-117.91621	-307.68787	968.07666	327.98111	-362.07971	1054.485	323.14267
